<svg width="135" height="32" viewBox="0 0 135 32" fill="none" xmlns="http://www.w3.org/2000/svg">
<path fill-rule="evenodd" clip-rule="evenodd" d="M32.1727 32V0H0V32H32.1727ZM23.8151 2.59459H29.5641V29.4054H20.4882C20.1478 27.6286 19.9776 25.8413 19.9776 24.0435C19.9776 23.6141 19.9898 23.1846 20.0141 22.7552C20.2452 18.8321 20.762 14.9438 21.5647 11.0903C21.662 10.626 21.7593 10.156 21.8566 9.68009C22.1606 7.85782 22.6045 6.06456 23.1883 4.30033C23.2613 4.12622 23.3281 3.94632 23.389 3.76061C23.5471 3.4124 23.6808 3.05259 23.7903 2.68117C23.7991 2.65181 23.8073 2.62295 23.8151 2.59459ZM20.0556 2.59459C19.6099 4.26545 19.2434 5.95409 18.956 7.6605C18.652 9.90062 18.2993 11.8157 17.898 13.4059C17.6426 12.8023 17.2412 12.3613 16.6939 12.0827L16.0007 11.8041C14.9305 11.3515 13.8238 10.9975 12.6806 10.7421C12.4738 10.6957 12.2793 10.6725 12.0968 10.6725C11.5009 10.6725 10.984 10.9046 10.5462 11.3689L10.2543 11.6823C9.82868 12.1001 9.46383 12.5528 9.15978 13.0403C7.95578 15.1643 7.35377 17.3522 7.35377 19.6039C7.35377 20.8226 7.52404 22.0588 7.86456 23.3123C8.07131 24.0435 8.40576 24.6819 8.8679 25.2274C9.33005 25.7613 9.87124 26.2372 10.4915 26.6551C10.8928 26.9104 11.3124 27.0381 11.7502 27.0381C12.3097 27.0381 12.8205 26.8408 13.2826 26.4461C13.7934 26.0051 14.219 25.5118 14.5596 24.9663C15.1068 24.0145 15.5994 23.0395 16.0372 22.0413L16.2561 21.5887C16.3413 21.403 16.4325 21.1592 16.5298 20.8575C16.6027 20.6369 16.6696 20.4454 16.7304 20.2829C16.7912 20.1204 16.8399 20.0392 16.8764 20.0392C16.8885 20.0276 16.8946 20.0624 16.8946 20.1436C16.8946 21.0954 16.9007 21.9543 16.9129 22.7203C16.9372 23.4748 16.9554 23.9623 16.9676 24.1828C17.0162 25.1578 17.0953 26.1269 17.2047 27.0903C17.302 27.8215 17.375 28.5586 17.4236 29.3014C17.4273 29.3365 17.4313 29.3712 17.4358 29.4054H2.6086V2.59459H20.0556ZM19.6492 15.4081C19.9168 13.6206 20.2512 12.1814 20.6526 11.0903C20.6161 11.3573 20.5735 11.6707 20.5249 12.0305C20.3181 13.5045 20.0931 15.2049 19.8499 17.1317C19.6067 19.0584 19.4425 20.5325 19.3574 21.5539C19.2844 21.1592 19.2479 20.6543 19.2479 20.0392C19.2479 18.7276 19.3817 17.1839 19.6492 15.4081ZM14.7055 13.0403C15.192 13.0403 15.6237 13.313 16.0007 13.8585C16.0251 13.963 16.0555 14.0733 16.0919 14.1893C16.2014 14.4679 16.2561 14.8219 16.2561 15.2514C16.2561 15.6344 16.1528 16.1161 15.946 16.6964C15.7514 17.2651 15.3744 17.9906 14.815 18.8727C14.5961 19.2093 14.3163 19.7258 13.9758 20.4222C13.7083 20.9561 13.4225 21.5016 13.1184 22.0588C12.8265 22.6159 12.5286 23.0918 12.2245 23.4864C11.9205 23.8694 11.6408 24.0609 11.3854 24.0609C11.2029 24.0609 11.0388 23.9391 10.8928 23.6953C10.7226 23.1498 10.6192 22.6623 10.5827 22.2329C10.5462 21.8963 10.528 21.5597 10.528 21.2231C10.528 20.4222 10.6131 19.6329 10.7834 18.8553C10.9658 18.0776 11.1725 17.3058 11.4036 16.5397C11.7928 15.321 12.5225 14.2996 13.5927 13.4755C13.9697 13.1853 14.3407 13.0403 14.7055 13.0403Z" fill="white"/>
<path d="M55.7823 23.5555V3.90573H51.2746V10.9077C50.2729 10.2711 49.0486 9.88368 47.5739 9.88368C43.9288 9.88368 40.868 12.8726 40.868 16.8579C40.868 20.8709 43.9288 23.8876 47.5739 23.8876C49.0486 23.8876 50.2729 23.5001 51.2746 22.8636V23.5555H55.7823ZM48.4643 20.2067C46.6278 20.2067 45.2922 18.7399 45.2922 16.8579C45.2922 15.0314 46.6278 13.5369 48.4643 13.5369C49.466 13.5369 50.4399 13.8413 51.2746 14.8099V18.9613C50.4399 19.9299 49.466 20.2067 48.4643 20.2067Z" fill="white"/>
<path d="M67.9981 14.1734V9.91135C65.9947 9.91135 64.5478 10.5479 63.3513 11.5719V10.1328H58.8437V23.5555H63.3513V15.8893C64.4087 14.8376 65.8 14.2564 67.9981 14.1734Z" fill="white"/>
<path d="M84.1508 23.5555V10.1328H79.6431V10.8523C78.6414 10.2158 77.4171 9.82832 75.9424 9.82832C72.2973 9.82832 69.2366 12.8173 69.2366 16.8303C69.2366 20.8156 72.2973 23.8322 75.9424 23.8322C77.4171 23.8322 78.6414 23.4448 79.6431 22.8082V23.5555H84.1508ZM76.8328 20.1514C74.9964 20.1514 73.6607 18.6845 73.6607 16.8303C73.6607 14.976 74.9964 13.4815 76.8328 13.4815C77.8345 13.4815 78.8084 13.7859 79.6431 14.7546V18.9059C78.8084 19.8746 77.8345 20.1514 76.8328 20.1514Z" fill="white"/>
<path d="M98.3422 10.1328H93.5841V8.41686C93.5841 7.08843 94.5024 6.23049 95.9214 6.23049C96.5336 6.23049 97.3405 6.34119 97.9805 6.47957L98.5927 2.74335C97.2292 2.38357 96.0884 2.24519 95.0032 2.24519C91.5529 2.24519 89.0765 4.65297 89.0765 8.52757V10.1328H85.7653V13.9797H89.0765V23.5555H93.5841V13.9797H98.3422V10.1328Z" fill="white"/>
<path d="M109.666 23.3064L109.165 19.5148C108.164 19.7085 107.412 19.8469 106.772 19.8469C105.437 19.8469 104.658 19.1827 104.658 17.8266V13.9797H109.249V10.1328H104.658V5.56627H100.15V10.1328H97.5066V13.9797H100.15V17.965C100.15 21.5905 102.32 23.9706 105.576 23.9706C106.911 23.9706 107.913 23.8599 109.666 23.3064Z" fill="white"/>
<path d="M116.42 23.5555V3.90573H111.912V23.5555H116.42Z" fill="white"/>
<path d="M126.68 29.7548L135 10.1328H130.27L126.764 18.4078L122.896 10.1328H118.11L124.51 23.7215L121.95 29.7548H126.68Z" fill="white"/>
</svg>
